# xmcd
#
# Track frame offsets: 
#        150
#        11163
#        24718
#        37426
#        51828
#        63349
#        74602
#        87578
#        100794
#        113671
#        128412
#        141458
#
# Disc length: 2044 seconds
#
# Revision: 0
# Processed by: cddbd v1.5.1PL2 Copyright (c) Steve Scherf et al.
# Submitted via: ExactAudioCopy v0.95b3
#
DISCID=b107fa0c
DTITLE=Sister Rosetta Tharpe - Gospel Train
DYEAR=1900
DGENRE=Gospel
TTITLE0=Don'T Take Everybody To Be Your Friend
TTITLE1=Jonah
TTITLE2=Jesus Is Here
TTITLE3=My Journey To The Sky
TTITLE4=Down By The Riverside
TTITLE5=Up Above My Head, I Hear Music
TTITLE6=Strange Things Happening Every Day
TTITLE7=How Far From God
TTITLE8=This Train
TTITLE9=Where You There When They Crucified My Lord
TTITLE10=When I Move To The Sky
TTITLE11=Didn'T It Rain
EXTD=
EXTT0=
EXTT1=
EXTT2=
EXTT3=
EXTT4=
EXTT5=
EXTT6=
EXTT7=
EXTT8=
EXTT9=
EXTT10=
EXTT11=
PLAYORDER=
